<?xml version="1.0"?>
<svg xmlns="http://www.w3.org/2000/svg" viewBox="0 0 50 50">
    <path style="text-indent:0;text-align:start;line-height:normal;text-transform:none;block-progression:tb;-inkscape-font-specification:Bitstream Vera Sans" d="M 31 4 L 31 6.8125 A 1.0001 1.0001 0 0 0 31 7 L 31 8 L 31 10 L 17 10 C 12.041484 10 8 14.041484 8 19 L 8 32 L 10 32 L 10 19 C 10 15.122516 13.122516 12 17 12 C 20.18426 12 22.864006 14.099572 23.71875 17 L 15 17 A 1.0001 1.0001 0 0 0 14.90625 17 A 1.0001 1.0001 0 0 0 14.8125 17 A 1.0001 1.0001 0 0 0 14 18 L 14 32 L 16 32 L 16 20.90625 L 24 26.5 L 24 34 L 9.0625 34 A 1.0001 1.0001 0 0 0 9 34 L 3 34 A 1.0001 1.0001 0 0 0 2.90625 34 A 1.001098 1.001098 0 0 0 3 36 L 9 36 A 1.0001 1.0001 0 0 0 9.09375 36 L 28 36 L 28 46 L 30 46 L 30 36 L 32 36 L 32 46 L 34 46 L 34 36 L 47 36 A 1.0001 1.0001 0 0 0 48 35 L 48 19 C 48 14.041484 43.958516 10 39 10 L 35 10 L 35 12 L 39 12 C 42.877484 12 46 15.122516 46 19 L 46 34 L 26 34 L 26 19 C 26 16.170743 24.676142 13.651734 22.625 12 L 31 12 L 31 17.28125 C 30.403104 17.627293 30 18.260396 30 19 C 30 20.104569 30.895431 21 32 21 C 33.104569 21 34 20.104569 34 19 C 34 18.260396 33.596896 17.627293 33 17.28125 L 33 8 L 37 8 L 37 4 L 31 4 z M 16.71875 19 L 24 19 L 24 24.09375 L 16.71875 19 z" fill="rgba(240,239,235,1.0)"/>
</svg>
